<?xml version="1.0" encoding="UTF-8"?>
<svg id="Layer_1" xmlns="http://www.w3.org/2000/svg" version="1.1" viewBox="0 0 793.7 793.7">
  <!-- Generator: Adobe Illustrator 29.8.3, SVG Export Plug-In . SVG Version: 2.1.1 Build 3)  -->
  <defs>
    <style>
      .st0 {
        fill: #4dbc94;
      }

      .st1 {
        fill: #fff;
      }

      .st2 {
        fill: #024b35;
      }

      .st3 {
        fill: #2eb085;
      }

      .st4 {
        fill: #6cdcae;
      }

      .st5 {
        fill: #0e8562;
      }

      .st6 {
        fill: #001d12;
      }
    </style>
  </defs>
  <g>
    <path class="st0" d="M125.46,158.4c12.01-5.68,187.99-37.96,268.33-85.97,6.47-7.32,130.56,63.24,93.17,132.38-41.28,76.35-60.34,193.78-60.34,193.78,0,0-298.75-231.98-301.17-240.2Z"/>
    <path class="st3" d="M395.49,72.33c-.81,4.22-.7,7.16-.81,10.03-.2,5.31-.19,10.62,0,15.93.39,10.88-.03,21.73.48,32.6.1,2.21.14,4.42.26,6.62.04.83.12,1.65.19,2.48.24.28.33.91.34,1.41.23,1.36.39,3.19.49,3.62.37,1.68.79,3.34,1.27,4.99.53,1.81,1.13,3.6,1.8,5.37.28.75.8,3.68.38,1.01-.05-.3-.09-.53-.12-.7-.1-.45-.12-.67,0,0,.08.34.21.82.37,1.15,1.59,3.2,3.25,6.32,5.17,9.33.92,1.43,1.89,2.81,2.87,4.2.13.19.24.34.33.48.11.13.22.26.37.43,1.85,2.2,3.74,4.36,5.74,6.43,2.44,2.52,5,4.92,7.65,7.21,1.19,1.03,2.43,2.02,3.64,3.03.11.1.23.2.34.32.29.2.57.39.8.56,10.86,8.02,22.77,14.57,35.07,20.09.88.4,1.79.76,2.67,1.18,1.31.53,2.62,1.07,3.94,1.59,3.05,1.2,6.12,2.34,9.21,3.43,6.22,2.19,12.53,4.16,18.88,5.93,12.71,3.53,25.61,6.13,38.66,8.08.69.1,1.17.18,1.52.23.34.04.8.1,1.43.17,1.28.16,2.56.31,3.84.46,2.56.29,5.12.56,7.69.81,5.13.5,10.27.9,15.41,1.24,10.59.69,21.2,1.09,31.81,1.37,21.12.56,42.23.89,63.34,1.68,3.25.12,6.49.23,9.74.34.55-23.27.48-46.17-1.16-67.28-.28-3.6-.84-8.97-3.66-11.29-6.19-5.07-36.71-7.51-46.42-9.38-54.71-10.51-114.91-27.25-166.13-49.1-16.53-7.05-33.38-18.06-49.5-24.24-3.05-1.17-6.03-2.6-7.9-1.8Z"/>
    <path class="st2" d="M665.44,156.85c-.44-.36-1.01-.7-1.68-1.04-4.31,5.14-8.82,10.1-13.56,14.86-12.46,12.52-26.22,23.78-40.65,33.95-6.41,4.52-13.12,8.53-19.69,12.79-3.08,2-6.1,4.08-9.06,6.24-.85.62-1.69,1.25-2.54,1.88-.06.04-.39.3-.7.53-.32.25-.68.53-.73.58-.83.67-1.66,1.33-2.48,2-11.7,9.59-22.49,20.25-32.56,31.52-5.12,5.72-10.06,11.61-14.85,17.61-.43.54-2.63,3.34-2.83,3.58-.83,1.08-1.65,2.16-2.47,3.25-2.31,3.06-4.58,6.14-6.83,9.25-18.18,25.17-34.98,51.54-49.53,78.97-7.83,14.76-15.06,29.83-21.73,45.14-.88,2.01-1.74,4.02-2.59,6.04-.21.52-1.05,2.52-1.22,2.95-1.6,3.87-3.16,7.76-4.69,11.66-3.06,7.81-5.99,15.67-8.8,23.57-11.19,31.56-20.4,63.8-27.98,96.41-1.88,8.09-3.66,16.19-5.34,24.32-.84,4.05-1.67,8.09-2.44,12.15-.23,1.2-.45,2.4-.66,3.61,0-.03-.13.84-.22,1.41-.07.57-.19,1.44-.19,1.41-.14,1.26-.28,2.52-.4,3.78-1.82,18.73-2.16,37.39-5.69,55.94-.23,1.23-.25,2.7-.64,3.88,0,.01,0,.02,0,.03-.34,2.93-2.79,65.97,1.68,68.45,7.46,4.13,6.61,9.63,15.73,7.73,6.24-1.3,20.27-9.86,26.51-13.34,74.62-41.54,166.46-104.56,207.74-180.9,37.39-69.14,31.41-139.74,32.67-215.5.86-51.6,6.02-112.72,2.07-163.45-.28-3.6-.84-8.97-3.66-11.29Z"/>
    <path class="st6" d="M278.82,510.19c-10.45-16.25-74.54-222.53-72.13-232.01.79-3.11-45.02-91.93-45.02-91.93,0,0-34.6-25.48-36.01-27.68-.09-.08-.18-.15-.26-.23-1.42,2.67-6.68,169.94-2.33,247.55,4.01,71.6,21.24,129,66.78,184.86,45.08,55.3,124.49,108.23,186.99,142.85,6.78,3.76,11.25,8.62,19.17,8.04.85-6.11.92-29.72.92-34.43s-.82-9.11-1.04-11.11c-1.29-.04-13.95-29.44-13.27-33.16-.1.14.42-4.11.46-4.68.14-2.2-22.38-20-25.54-25.14-1.31-2.13-30.15-24.84-33.52-35.71-3.15-10.15-6.59-20.13-9.01-30.5-.84-3.59-9.6-18.86-12.72-23.29-1.23-1.75-2.41-3.55-3.62-5.31-.08-.12-.57-.84-.91-1.36l-18.92-26.78Z"/>
    <path class="st5" d="M156.39,406c-3.82-68.13,3.12-220.74,3.76-220.94s106.43-13.96,233.25-71.8c142.61,62.77,239.16,74.11,239.16,74.11,0,0,2.15,108.11,1.4,153.41-1.1,66.52,4.14,128.49-28.68,189.19-36.25,67.03-116.87,122.35-182.38,158.82-5.48,3.05-17.8,10.57-23.28,11.71-8.01,1.67-13.89-3.16-20.44-6.78-54.87-30.39-124.58-76.86-164.17-125.41-39.98-49.04-55.11-99.43-58.63-162.3Z"/>
  </g>
  <path class="st4" d="M669.97,274.67c15.24-7.88,30.42-15.88,45.54-24,5.98-3.19,24.98-14.53,30.48-13.59,1.73,1.5,2.97,3.01,3.16,5.38.35,4.34-2.18,9.1-3.26,13.27-1.89,7.3-5.33,29.4-9.92,34.32-3.74,4.01-57.46,29.72-66.8,33.77-31.32,14.41-61.71,30.81-92.26,46.76-4.02,2.1-7.59,2.11-10.27-1.98-.21-1.32,0-2.73.42-3.99,3.79-11.23,7.41-22.42,10.31-33.92,1.89-7.49,5.78-10.21,12.25-13.77,7.17-3.95,14.49-7.64,21.78-11.4,9.04-4.68,18.05-9.42,27.03-14.22,2.67-1.1,8.89-4.55,11.67-6.03,6.52-3.46,13.48-6.97,19.88-10.6h0Z"/>
  <path class="st4" d="M124.66,322.98c-18.61-8.46-36.8-17.71-55.29-26.42-5.47-2.82-10.71-4.7-12.71-11.15-4.1-13.21-7.43-26.98-10.75-40.4-.85-3.43.06-7.41,3.77-8.61,6.08,1.14,30.37,14.88,36.73,18.24,12.58,6.58,25.2,13.07,37.86,19.48,23.62,12.47,46.84,25.48,70.88,37.26,2.79,1.63,17.24,8.64,18.62,11.08,7.38,13.06,10.09,29.54,14.81,43.78,1.4,4.22-4.2,5.7-7.34,5.69-1.29-1.15-13.1-7.44-15.01-8.47-17.2-9.34-34.75-17.96-52.42-26.35-9.74-4.63-19.25-9.72-29.14-14.12h0Z"/>
  <path class="st4" d="M123.82,401.62c-7.46-3.14-31.88-11.27-35.3-16.97-1.08-1.83-1.98-3.76-2.66-5.77-1.97-5.65-3.27-11.55-5.09-17.25-1.77-5.56-4.08-11.09-5.6-16.71-.27-1.01-.67-2.32-.33-3.34.54-1.64,2.17-3.4,3.83-4,5.2-1.88,38.98,14.6,45.38,17.59l1.04.36c25.82,11.39,51.53,23.04,77.11,34.96,7.09,3.25,14.64,6.56,21.53,10.01,8.5,4.26,19.89,8.01,24.41,16.83,4.32,8.43,6.52,17.89,9.36,26.89,2.69,7.87,7.7,16.88-6.03,15.4-39.25-21.46-86.48-40.85-127.65-58h0Z"/>
  <path class="st4" d="M669.36,356.26c5.59-2.46,41.78-19.67,45.36-18.66,1.02.29,1.7,1.3,2.04,2.24.48,1.34.24,3.17-.03,4.53-1.05,5.45-3.36,10.89-4.98,16.2-2.2,7.19-3.59,16.92-7.6,23.3-1.3,2.08-3.12,3.8-5.16,5.14-5.61,3.69-23.31,10.77-30.15,13.04-30.73,12.4-61.12,25.64-91.14,39.69-7.59,3.51-15.13,7.14-22.6,10.9-5.05,2.57-12.04,7.47-17.63,7.23-2.85-.07-4.85-5.02-3.63-7.16,5.43-9.55,8.38-36.14,17.02-41.81,9.62-6.33,22.67-11.55,32.41-16.24,28.39-13.67,57.48-25.52,86.1-38.4h0Z"/>
  <path class="st1" d="M318.33,226.56c31.9-2.76,61.67,16.36,78.76,42.18,20.1-31.91,61.23-53.05,98.07-36.59,23.27,10.4,39.09,36.5,42.43,61.23,11.72,86.87-83.42,137.42-139.99,183.7-22.34-15.58-44.95-31.94-66.06-49.29-41.16-33.82-81.13-71.71-75.97-130.34,2.91-33.04,27.75-67.86,62.76-70.89h0Z"/>
</svg>